<svg id="Ebene_1" data-name="Ebene 1" xmlns="http://www.w3.org/2000/svg" viewBox="0 0 774.21 775"><defs><style>.cls-1{fill:#70a07c;stroke-miterlimit:10;}.cls-1,.cls-4{stroke:#000;}.cls-2{fill:#444;stroke:#444;stroke-width:22px;}.cls-2,.cls-4{stroke-linejoin:round;}.cls-3{fill:#282828;}.cls-4{fill:none;stroke-width:27px;}.cls-5{fill:#fff;}</style></defs><g id="Fingerabdruck"><path class="cls-1" d="M813.35,412.48a20,20,0,0,1-12.7-4.41c-55.5-45.32-126.73-70.28-200.57-70.28s-145.06,25-200.57,70.3a20.48,20.48,0,0,1-26.66-1.1c-7-6.9-6.46-17.6,1.24-23.88,62.49-51,142.75-79.11,226-79.11s163.5,28.09,226,79.11c7.69,6.28,8.25,17,1.23,23.88a19.9,19.9,0,0,1-14,5.49Z" transform="translate(-216.39 -194.5)"/><path class="cls-1" d="M845.29,522.88a19.49,19.49,0,0,1-15.67-7.48c-52.36-69.83-138.17-111.52-229.54-111.52S422.9,445.57,370.54,515.4c-5.81,7.78-17.55,9.85-26.18,4.62s-11-15.7-5.16-23.45c59.38-79.18,156.91-126.46,260.88-126.46S801.58,417.39,861,496.59c5.81,7.75,3.52,18.25-5.15,23.45a20.5,20.5,0,0,1-10.52,2.84Z" transform="translate(-216.39 -194.5)"/><path class="cls-1" d="M540.5,844.62a20,20,0,0,1-13.4-5C523,835.9,426.32,747.53,426.32,662.45c0-88.3,77.94-160.13,173.76-160.13s173.76,71.83,173.76,160.13c0,9.33-8.45,16.9-18.86,16.9s-18.86-7.57-18.86-16.9c0-69.67-61-126.35-136-126.35s-136,56.68-136,126.35c0,71.34,88.95,152.57,89.86,153.38a15.67,15.67,0,0,1-.13,23.9A19.93,19.93,0,0,1,540.5,844.62Z" transform="translate(-216.39 -194.5)"/><path class="cls-1" d="M659.66,844.62c-45.37,0-150.54-77.31-160.73-163.4a101.87,101.87,0,0,1,28.9-83.28c18.86-18.88,44.34-29.35,71.72-29.49h.53c26.71,0,52,9.4,71.18,26.49,20.07,17.86,31.11,41.85,31.11,67.53v11c0,27.14,23.59,49.22,52.61,49.22s52.64-22.08,52.64-49.22v-3.85c0-105.2-85.08-192.71-193.71-199.2C557.28,467,503,484.52,461,519.62c-43.51,36.44-68.46,88.52-68.46,142.85,0,44.7,16.9,88.24,47.58,122.61,6.49,7.3,5.19,17.91-3,23.74s-20,4.64-26.54-2.65c-36-40.35-55.83-91.39-55.83-143.72,0-63.66,29.33-124.72,80.4-167.52,49.63-41.58,114-62.26,181.16-58.23,128.36,7.68,228.94,110,228.94,232.91v3.86c0,45.77-40.54,83-90.37,83s-90.33-37.23-90.33-83v-11c0-16.62-7.1-32.07-20-43.56a66.69,66.69,0,0,0-44.57-16.67h-.35a61.13,61.13,0,0,0-43.81,18.24,69.83,69.83,0,0,0-19.52,57.2c8.33,70.23,98.44,133.19,123.24,133.19,10.41,0,18.86,7.57,18.86,16.9s-8.43,16.87-18.84,16.87Z" transform="translate(-216.39 -194.5)"/><path class="cls-1" d="M729.65,811.57c-67.5,0-149.91-73.88-149.91-160.13,0-9.33,8.45-16.9,18.86-16.9s18.86,7.57,18.86,16.9c0,66.85,62.75,126.34,112.19,126.34,10.42,0,18.87,7.57,18.87,16.9S740.07,811.57,729.65,811.57Z" transform="translate(-216.39 -194.5)"/></g><g id="Sensor"><rect class="cls-2" x="299.61" y="144.5" width="174" height="112"/><rect class="cls-3" x="343.61" y="158.5" width="76" height="103" rx="16.27"/></g><g id="Rahmen"><path class="cls-4" d="M288.94,208.79a59.05,59.05,0,0,0-59.05,59V897a59.05,59.05,0,0,0,59.05,59h60.35" transform="translate(-216.39 -194.5)"/><path class="cls-4" d="M857.71,956h60.34a59.05,59.05,0,0,0,59.05-59V267.84a59.05,59.05,0,0,0-59.05-59" transform="translate(-216.39 -194.5)"/><line class="cls-4" x1="132.9" y1="14.29" x2="72.55" y2="14.29"/><line class="cls-4" x1="701.66" y1="14.29" x2="641.31" y2="13.5"/></g><g id="Hand"><path class="cls-5" d="M693,530l-.12,0c.44,1.84.39,3.5,1.93,4.89,1,.91,1.69,1.15,2.36.75C695.85,533.74,694.42,531.9,693,530Z" transform="translate(-216.39 -194.5)"/><path class="cls-5" d="M690,525.46c-.83-1.48-1.56-3-2.29-4.58-.67,2.77,1.56,4.1,2.78,5.9a3.79,3.79,0,0,0,1.08,1.21C691,527.17,690.51,526.33,690,525.46Z" transform="translate(-216.39 -194.5)"/><path class="cls-5" d="M711.89,563.43a5.45,5.45,0,0,0,0,4.83c0-.11.05-.22.07-.33C712,566.4,711.94,564.91,711.89,563.43Z" transform="translate(-216.39 -194.5)"/><path class="cls-5" d="M566.38,412.28a.78.78,0,0,0,0,.14c1.36-1.4,1.6-3.22,1.63-5.11A40.76,40.76,0,0,0,566.38,412.28Z" transform="translate(-216.39 -194.5)"/><path class="cls-5" d="M550.34,460.78a12.62,12.62,0,0,1-1.22,2.28,6.92,6.92,0,0,1-1.24,1.39,6.43,6.43,0,0,1-6.08,4.3c.7,1.35,2.55,1.33,5.82.22.09-2.1-.85-4.35,1.91-5.61A1.73,1.73,0,0,0,550.34,460.78Z" transform="translate(-216.39 -194.5)"/><path class="cls-5" d="M475.62,487.81a28.17,28.17,0,0,0-1.2,2.6l.56-.21c2.94-1,4.65-3.32,6.57-5.52,2.22-2.53,4.67-4.85,7.07-7.22,2.49-.69,5-2.46,7.45-3.08a11.79,11.79,0,0,0,7.6-3.47C495.67,470.14,478,483.22,475.62,487.81Z" transform="translate(-216.39 -194.5)"/><path class="cls-5" d="M465.19,508.51a5.49,5.49,0,0,1,1.28-.05c1.82.38,2.17-.68,2.57-1.94.32-1,.8-1.93,1-2.93a4.35,4.35,0,0,0,0-1.61A17.31,17.31,0,0,1,465.19,508.51Z" transform="translate(-216.39 -194.5)"/><path class="cls-5" d="M513.93,711.49c-1.12-1-1.3-2.43-2.26-3.73-1,2.35-3.85,3.25-5.66,1.86-.11.29-.22.59-.34.88a7.91,7.91,0,0,1-1.2,2.21c-.3.47-.64.94-1,1.41-.13.45-.25.91-.39,1.36-.93,3.06-1.71,6.15-2.4,9.27,1.32.51,3.47.27,3.52-1.5-.24-2.17.27-3.58,2.6-4.3.79-.24,1.44-1.55,1.77-2.51s.63-1.86,1.95-2.21c1.77-.48,1.61,1.25,2.58,1.9l4.45-1.45c0-.22,0-.45,0-.67C516.34,713.18,515.05,712.43,513.93,711.49Z" transform="translate(-216.39 -194.5)"/><path class="cls-5" d="M481.62,841.94A2.13,2.13,0,0,1,481,843c-.17.67-.33,1.33-.49,2l2,.67c.82-3,1.32-6.42.21-9.39l-1.32,5.15A.72.72,0,0,1,481.62,841.94Z" transform="translate(-216.39 -194.5)"/><path class="cls-5" d="M661.54,690.68c-.54,1.11-1.13,2.22-1.64,3.34a5.53,5.53,0,0,1,2-.71,7,7,0,0,1,.92-4.56A5.5,5.5,0,0,0,661.54,690.68Z" transform="translate(-216.39 -194.5)"/><path class="cls-5" d="M699.45,626.15c1.08-2,2.53-4,3.76-6a31.1,31.1,0,0,1,.7-4.51c-1.67.89-2,2.87-3,4.24-.26.33-.22.87-.44,1.24-.87,1.51-1.14,1.59-2.64.51-.06.34-.35,1.07-.18,1.22,1.5,1.22.31,2.33-.12,3.37a111.84,111.84,0,0,1-5.92,12.15c-.42,2.17-.43,2.33-1.85,3.63-2,3.49-2.66,7.33-3.58,11.27a5.54,5.54,0,0,1-1.11,1.89,66.47,66.47,0,0,0-7.26,10.08c-3.53,6.87-6.57,14.37-11.4,20.45C670,684,697.1,630.61,699.45,626.15Z" transform="translate(-216.39 -194.5)"/><path class="cls-5" d="M651.2,715a45.09,45.09,0,0,1,2-7.57c-2.24,2.95-4.55,5.91-7,8.64-2.1,3.59-3.93,7.25-6.82,10.21a2.84,2.84,0,0,0-.37,2,3.71,3.71,0,0,1-2.14,3.69c-1.47.86-2.18,1.87-1.66,3.47a60.28,60.28,0,0,1,3.76-5C643.18,725.38,647.46,720.41,651.2,715Z" transform="translate(-216.39 -194.5)"/><path class="cls-5" d="M695.9,570c-.18-6-5.55-2.47-5.15,1.5.28,1.49.56,3,.82,4.4l-2.45,1.77-.27-.12c1.21-1.6.31-3.55.81-5.3.22-.75-.36-1.72-.57-2.59l-.6-.28c1.41-1.15,3.26-1.9,3.72-3.8a6.58,6.58,0,0,0-1.61-.29c-.32,0-.63.59-.92.58a2.66,2.66,0,0,1-1.58-.53c-.25-.75.76-1.91,1.55-2.26l-.26-.48c-.91.33-2.85.61-3.46.08-1.11-1.77-2-.92-3,0-.34.29-.94.29-1.68.49,2.87-5.09,3.37-4.8,5.84-3.15.09-1.47.17-2.67.25-4,.29.15.75.28.76.42.09,2.2,1.59,3.79,2.46,5.65.37.72.9,1.83,1.7.81.9-2.37-1-4.49-1.78-6.65-.28-.61-.52-1.47-1-1.72-1.41-.67-.91-2.84-2.73-3.18-.6-.11-1-1.08-1.64-1.28a4.86,4.86,0,0,0-1.86.06c-.5-2-1-3.73-1.39-5.47l-.69-.16c-2.62,2.93-4.71,6.15-4.93,10.14.35,1.51.85,2.85-.32,4.45-2.41,3.62-3.43,8.24-5.66,11.94-1.8,2.33-3.82,4.49-5.81,6.66a3.18,3.18,0,0,1-3.6.89,40.72,40.72,0,0,0-7.14.23c-3.7.87-4.77-5.56-8.46-3.18-2,1.46-4.3.75-6.36,1.51-1.3.49-2.7,1.5-4.19.17a13.13,13.13,0,0,0-1.62,1.36c.73.54,1.32,1.43,2.31,1,1.64,5.94-2.46,6.59-5.39,2.06-2,2.07-.45,4,.29,6.07a4.15,4.15,0,0,1-2.29-4.07c.26-1.28.34-2.52-1.22-3.19-1-.63-1.85-1.65-2.9-2.28-1.29,2-1.51,1.92,1,3.26l1.18,3.23c-1.4-1.27-2.14-1.61-3.83-1.3.09.61,0,1.38.32,1.8,1.13,1.42,1.86,2.82,1,4.44-1.37-1.86-5.81-3.8-3.83-6.4.28-.34.22-1,.42-2a13.59,13.59,0,0,0-4.94,3.72c-.55-1.51-1.14-2-2.36-1.15-.41.28-1.35-.23-2.61-.5a3.51,3.51,0,0,1,.93,3.89c-2.89-.38-3-3.5-2.16-5.73.49-3-1.11-6.19-1.34-9.11-2.54-3.41,1.9-6.77-.61-10.33-.57-.85.5-2.81.82-4.27l0,0c.19-2,.15-4.15,2-5.68a1.72,1.72,0,0,0,.2-1.4c-.68-2.51-.61-4.61,1.46-6.72,1.13-1.15,1-3.43,1.86-5,1.52-2.81.15-5.66.48-8.47.29-2.43-.32-5-.46-7.35,2-11.49-2.56-22.78-3-34.28-.6-4.65-3.65-9.07-2.91-13.9,1.89-6.87-1.75-13.58.32-20.4.52-1.49,1.31-3.6-1.11-4.69-.52-1.55.81-3.68,1.11-5.29a2.28,2.28,0,0,0-1.83-2.72,6.85,6.85,0,0,1-1.7-.7c-3.12.38-6.26.17-9.06.85-1.64,1.95-3.81.78-5.72,1.08a1.22,1.22,0,0,1-1-.31c-1.14-1.82-2.74-1.16-4.37-1.08a20.77,20.77,0,0,1-5-.64c-1-.21-1.34.09-1.49,1.06-.67,4.34-1.49,8.65-2.09,13-.57,2.77.56,6.14-1.26,8.54-1.66,1.83-2.13,10.69-2.18,12.46-.11,3-.57,6.08-.53,9.1-.41,4.57-2.3,9.17-1.22,13.69,0,1.06-.11,2.54-.78,3.08-2.15,1.75-1.56,4.12-1.92,6.29-.76,5.3-2.14,10.52-2.92,15.8-.15,1.23-1.6,7.91-3,9.91-2.64,3.48-.76,7.34-2.56,10.82-.74,1.46-1.67,2.83-2.32,4.33-.51,1.2-1.43,2.45-.3,3.88.12,1.43-.61,3.32-.77,4.83l.55.32c.74-.58,1.48-1.16,2.21-1.75,1.22,1.29.58,3.62.71,5-1,0-2.21-.28-2.4.05-.63,1.12-1.64,2.48-.16,3.73,1,.88.6,1.48-.35,1.68-3.33.38-4.1,1.25-1.7,5.76-8.64-.27.7-4.6-3.73-7.73-1.43,2.06-1.23,4.87-2,7.26-.67,2-2,3.76.57,5.44-4,.63-6.19,3.82-9.18,5.79-1.86,1.22-2,2.49-1,4.78a4.16,4.16,0,0,0-3,2.13c-1,2.87-1.88,5.81-2.79,8.72a1.9,1.9,0,0,0-.11.93c.74,2.88-1.09,4.4-3,6-1.31,1.25-2.24,2.95-3.49,4.31-.26.33-.68.72-.66,1.06.21,2.94-1.78,5.27-2.14,8-.23,1.75,0,3.54-.21,5.29.09,2.71-3.48,4.61-2,7.24,2.59,4.15-1.3,3.71-2.8,6.89a55.58,55.58,0,0,0-6.2,14c-.39,1.51,0,3.34-.11,4.84-.66,1.17-.75,2.07.62,2.84,1.73,3.17-1.56,16.6,4.22,16-.31,5.83,3.89,3,5.18,7.3.49,2.67,2.75,3.41,4.42,4.8,1.08.9,2.32,1.58,3.42,2.46.64,1,1.29,2.86,2.41,3.29.86.26,2-.22,3.16-.42a1.24,1.24,0,0,1,.11.64c-.24,2,1.59,2.23,3,2.81,2.47.86,5.13,1.39,7.37,2.66,1.82,1,4.3,1.13,5.33,3.62.6,1.47,2,2.62,3.31,4.33-.92,15.48-5.45,13.09-18.48,11.62a1.55,1.55,0,0,1-1-.9c-.38-1.18-1.18-1.27-2.22-1.26-3.41-.17.58,4.23-3.61,4.16-.1-.28-.12-.63-.3-.78-3.31-2.26.26-2.29,1.16-4.66,0-.1-.55-.72-.69-.66a4.2,4.2,0,0,0-2.42,2.13h-4.11c.21-.76.49-1.63.7-2.51s1.43-1.92-.29-2.63l-1.63,1.93-.49.1a3.14,3.14,0,0,0-2.39-3.68c.47-.69.87-1.26,1.27-1.83l-.39-.36c-1,.8-4.1,2.11-1.88,3.41,1.77,2,1.91,5.16,3.06,7.57.13.36.53.91.73.88a5.18,5.18,0,0,0,1.46-.67l-.23-.61c2.22,1.84-1.12,9.46,3.37,7.66-.41,1.25-.3,2.24-1.87,2-1.31-.17-1.64,1-1.18,1.94,1.37,3-.31,5.66-.75,8.41-.2,1.29-1.86,2.29-2.42,3.6-2.26,6.28-4.06,12.77-6,19.17-.17.66.49,1.54.85,2.55-2,2.64-2.69,2.19-.07,5.71-1.29,3.41-2.49,6.26-3,9.69a5.31,5.31,0,0,0,.89,1.6c1-1.19,1-2.67,1.17-4.15l.68,0-.51,4.88-2.85,2.46.5.24a7.24,7.24,0,0,1-1,2,2.92,2.92,0,0,0,.13,4.43,2.36,2.36,0,0,1,.37,2.18c-1,2-3.34,3.75-3.91,5.89.34,3.12-1.95,5.59-2,8.54s.23,5.95.09,8.92c-.42,5.29-3,10.14-2.51,15.56-.17,4.69-3.08,8.86-2.32,13.76.31,1.38-.8,3.08-1.28,4.63a50.3,50.3,0,0,0-2.64,14.08c0,2.28-4,5.09-6.23,4.6-4.48-.75,95.8,9.86,96.44,7.81-1.43.83-1.48,3.35-2.35,4.84-1.1-1.51-1.94-2.8-2.94-4-.84-.8-2.13-1.22-3.05-2l1.79-.62c-2.1-3.63-2.49-7.8-2.73-11.93-.17-2.43-.5-2.71-2.89-2.39-.46.07-1-.31-1.72-.58,1.84-1.07,3.41-2,2.67-4-1.72-1.75,0-1.52,1-1.83.27-2.14.53-4.31.82-6.71,2.56.51,2.27-2.24,3-3.74.46-.92-.35-2.41-.33-3.64a4.8,4.8,0,0,1,.74-2.63c1.71-2.3-.39-4.14-.24-6.08a18.09,18.09,0,0,0,1.34-5.32c.63-1.74.43-2.92-1.61-3.42-2-.71.37-2.29,1.3-2.92l-1.35-1.95a6.82,6.82,0,0,0,2.08.65c.76-.08,1.94-.33,2.1-.8.26-.73-.18-1.71-.34-2.58-.69-.64-1.34-1.49-2-2.21,1-.41,2.48-.45,3.21-1.34.9-1.69-.75-4.49-2.63-4.8s-2.8-1.67-3.69-3.17c-1.5,1.59-.19,2.67.55,4.14l-2,.13c-.33-2.22-2.24-6.08,1.49-5.29,1.31.25,2.58,1,4,.17,1.16,0,2.16,1.87,3.25,2.62-.44-2.19.47-3,2.3-3.72s1.9-2.32.35-3.82c-1.1-1.23.1-3.05.85-4.12,1.24-1.4,2.3-2.7,1.21-4.67a1.15,1.15,0,0,1,.08-.92c1.21-2.27,2.45-4.51,3.52-6.48-.28-2.26-1.39-4.1-.18-6.08a9.5,9.5,0,0,1,2.21,1.57c.42-4.66,3-8.58,2.57-13.33,0-1.46-.46-3,1.45-3.83.24-.1.43-.88.29-1.18-.68-1.49-.37-2.64,1.58-3.69l-3-.75-.09-.66c1.35-.37,3.42-.33,4.48-1.11,1.15-2.34,2.2-4.74,3.15-7.16.19-2.84,1.43-5.44,2.17-8.24,1.39.72,2.14-.1,2.71-1.68.34-1,1.37-1.66,1.67-2.6A28.34,28.34,0,0,0,615,729c0-.08-.78-.46-.91-.35-1.81,1.38-.15,3.85-3.42,2.11.9-1.39,2.34-2.69,2.55-4.29-.13-1.95,1.28-2.64,2.61-2.9,1.78-.33,2-1.28,1.76-2.7-.52-1.69.16-3.76,2.31-3.19,4.14,2.32,4-4.7,5.88-6.89A40.31,40.31,0,0,0,631,702c2.29-4,5.85-7,8.44-10.75,1.89-2.81,2.45-6.29,5.1-8.61,1.22-1.52,1.75-3.62,3.06-5.16,1.73-2.15,3.22-4.79,5.36-6.49A7.19,7.19,0,0,0,655.9,667c.67-1.75.79-3.81,2.87-5,1.06-.61,1.35-2.48,2.1-3.71s1.69-2.27,2.44-3.46c2.35-3.26,2.69-7.36,3.89-11.05,3.08-5.14,6.45-10.11,9.24-15.42.81-3.42,1.32-6.86,3.69-9.68a18.12,18.12,0,0,0,2-3.62c2.12-4.85,4.56-9.59,5.77-14.8,1.57-3.27,3.64-6.63,5.07-10,.43-2.32.13-4.8.67-7.08,2.28-3.08,1.77-6.9,2.65-10.34C696.56,572,696.08,570.94,695.9,570ZM515.29,651.16l1.89,1.13.08.54-2.18.69c-.17-.73-.35-1.46-.52-2.19Zm-.45,7.68a20.61,20.61,0,0,1,2-2.92c1.5,1.41.86,2.91.41,4.29-.07.23-1.26.36-1.72.12S514.68,659.18,514.84,658.84Zm4,18.64a8.42,8.42,0,0,0-1.29-1c.25-.45.5-.89.62-1.09l4.23,1.67C521,678.84,520.15,678.9,518.81,677.48Zm5.07-4.06c-2.63-.68-5.12-3.6-8.34-.69.35-2,.69-3.91,1.11-6.28a19.34,19.34,0,0,0,7.41,6.48Zm-3.67-31.84,4.2-1.74C523.28,642.43,522.61,642.71,520.21,641.58Zm11.41-33.66c.15-.66.29-1.31.44-2h1l.52,2.11ZM513.54,805.54a27.79,27.79,0,0,1-2.1-3.78l-.59.57c.17-1.18.35-2.36.53-3.53l.47,0C512.43,800.87,514.38,802.58,513.54,805.54Zm21.8-85.68c.66,2.14,1.17,3.8,1.68,5.48C535.34,725.54,534.31,722.87,535.34,719.86Zm-6.12,4.92c.22-1.09.42-2.1.63-3.12l1.81,1.49C531.54,724.43,530.91,725.15,529.22,724.78Zm1.36,4.63c.93-.15,2-.54,2.13-.31a5.56,5.56,0,0,1,1,3.17Zm7.12,15.38c-.29.29-1.15.51-1.33.33a5.09,5.09,0,0,1-1.55-2.25c-.23-1.25.82-1.47,1.82-1.5C537,742.44,538,743.77,537.7,744.79Zm0-7.4a31.67,31.67,0,0,1-3.61-3.89c1.94.14,4.59-.41,5.09,1.69A7.67,7.67,0,0,1,537.68,737.39Zm4.63-7.83c-.18-.34.09-.91.16-1.37l.51,0,1.82,2.55C543.22,731.67,542.77,730.44,542.31,729.56Zm16.4,81.31c.31.14.9.33.89.42a23.39,23.39,0,0,1-.6,2.29l-1.15-.41Zm.19,42.56c-.41-.56-.83-1.11-1.45-1.94l1.66-1.72c.36.54,1.08,1.13,1,1.59A6.59,6.59,0,0,1,558.9,853.43Zm.86-28.91c-1.27-3.84-1.2-4.46,1-8.36C561.76,817.44,560.93,823.53,559.76,824.52Zm15.5,46.83v.43c-.58.44-1.14.9-1.75,1.29-.93.67-1.34,0-1.47-.86C572.27,870.73,574.22,871.53,575.26,871.35Zm8.1-71.31-2.32-2.1c1.56-.81,2.48-.62,2.88.56C584.06,798.9,583.57,799.52,583.36,800Zm13.71-29.27c-1.19-.78-2.75-1.14-2.54-2.88.41.14.93.17,1.21.45a26.14,26.14,0,0,1,1.65,2.09Zm3.6-25.52c1-.16,2.17,1,2.17,2.31C602,747.17,598.54,746.21,600.67,745.25Zm1.27-1.47c-.08-.12,2.71.92,2.59,1.15C603.3,745.43,602.54,744.73,601.94,743.78Zm2.33-176.62c.37-1.18.7-2.37,1.14-3.51a.89.89,0,0,1,1.57.51C607.11,565.8,606.24,566.79,604.27,567.16ZM610.6,727c-.18,0-.72-.64-.71-1a1.29,1.29,0,0,1,.87-.84c.29-.07.68.34,1.4.74C611.39,726.48,611,726.91,610.6,727Zm6-136.22c-1.58-.92-4.31-2.09-3.16-4.21C616.88,584.51,617.64,588.13,616.57,590.77Zm23.86-8.56c-.8.37-1.85.22-1.86,1.56a18.33,18.33,0,0,1-2,.19c1.08-1.42,1.87-2.47,2.68-3.5.3-.39.68-.73,1-1.09.22.34.64.69.63,1C640.88,581,640.8,582,640.43,582.21Zm3.83.07c-2.18-.38-.87-2.65-.87-4.11l.92,0C644.48,579.42,645.7,581.53,644.26,582.28Zm38-26.85-3-3.76C681.73,551.16,683.13,553.32,682.29,555.43Zm-5.41,9.94c-.28-2.08-.78-3.6.9-4.8.48-.69-.3-2.29-.24-3.22a5,5,0,0,1,2.66,4.76C680.15,563.14,678.26,564.09,676.88,565.37Zm4.72,3.46a11.93,11.93,0,0,1,1.31-1.23,18,18,0,0,1,1.68,1.59C683.23,570.73,683.05,570,681.6,568.83Z" transform="translate(-216.39 -194.5)"/><path class="cls-5" d="M555.81,574.58" transform="translate(-216.39 -194.5)"/><path class="cls-5" d="M653.34,491.48a76.13,76.13,0,0,0,7.35,3.39c2.15.81,3.77,1.73,4.76,4,1.37,3.53,6.12,4.18,7.95,7.63,1.21,1.71,3.1,2,4.67,2.87a5.08,5.08,0,0,1,1.25,1.55c1.54,2.73,3.89,4.81,6.18,6.89l.46-.48C685.39,516.26,654.55,491.28,653.34,491.48Z" transform="translate(-216.39 -194.5)"/><path class="cls-5" d="M628.68,486a13.28,13.28,0,0,1-2.37-2.57l-.17-.28c-.39,1.18.9,1.89,1.25,2.74.68,1.24,1.76,3.31,3,4a1.18,1.18,0,0,0,.77-.7A6.52,6.52,0,0,1,628.68,486Z" transform="translate(-216.39 -194.5)"/><path d="M711.89,563.43c0-.36,0-.72,0-1.08s-.17-.45-.26-.67q-.5-1.18-1-2.37a2.24,2.24,0,0,1-1-2.32q-1.12-2.47-2.36-4.9c-.13,0-.23,0-.26,0a8.52,8.52,0,0,1-1.43-3.19q-1.37-2.49-2.83-4.92c.05.6-.28,1.17-1.13,1.71-.86-1.15-.34-2.12.24-3.08-1.57.85-1.42-1.11-1.5-2.47-.17-.25-.33-.51-.5-.77l-1.74.35a11.71,11.71,0,0,0,.87-1.65c-.46-.68-.91-1.35-1.38-2-.09-.14-.2-.28-.3-.41-.67.4-1.36.16-2.36-.75-1.54-1.39-1.49-3-1.93-4.89l.12,0c-.49-.67-1-1.35-1.45-2a3.79,3.79,0,0,1-1.08-1.21c-1.22-1.8-3.45-3.13-2.78-5.9l-.51-1.06c-.12-.15-.24-.28-.29-.36a.36.36,0,0,1,.07-.1c-.34-.69-.68-1.38-1-2.05l-.46.48c-2.29-2.08-4.64-4.16-6.18-6.89a5.08,5.08,0,0,0-1.25-1.55c-1.57-.91-3.46-1.16-4.67-2.87-1.83-3.45-6.58-4.1-7.95-7.63-1-2.25-2.61-3.17-4.76-4a76.13,76.13,0,0,1-7.35-3.39,36.88,36.88,0,0,1-16.94-1.37,7.59,7.59,0,0,1-1.38.14,6.9,6.9,0,0,1-3.84-1.1,1.18,1.18,0,0,1-.77.7c-1.26-.64-2.34-2.71-3-4-.35-.85-1.64-1.56-1.25-2.74-3.54-5.38-2.75-11.24-2-17.06,0-1.31,0-2.63,0-4l.47-.14c.1-1.11.16-2.21.15-3.29a36.84,36.84,0,0,1,.59-8.23,5.13,5.13,0,0,1,.53-4.24c.05-19.72,5.16-41.42-7.34-56.67a9.24,9.24,0,0,1-4.91-3.8,38.44,38.44,0,0,1-7.34-3.52c-3.51-1.87-8.09-1-12.12-1.34-5.36,2.23-10.78,4.27-15.9,7a34.33,34.33,0,0,1-4.67,9.15A54.53,54.53,0,0,0,568,407.31c0,1.89-.27,3.71-1.63,5.11a7.35,7.35,0,0,1,.07.82l-.25,1.9a6.07,6.07,0,0,1-.84,1.87c-.14.91-.27,1.83-.36,2.78a7.19,7.19,0,0,1-2.49,4.9c-.61,3.74-1.4,7.46-2.34,11.16a13.27,13.27,0,0,1-.59,2.27c-.34,1.3-.7,2.59-1.06,3.88l.26.06-1.06,2.73c-.64,2.17-1.28,4.33-1.93,6.51a10.55,10.55,0,0,1-.51,1.69,6.73,6.73,0,0,1-4,4.48,15.45,15.45,0,0,1-1,3.31,1.73,1.73,0,0,1-.81,2.58c-2.76,1.26-1.82,3.51-1.91,5.61-3.28,1.12-5.12,1.13-5.82-.22-.11,0-.19,0-.3,0a8.16,8.16,0,0,1-1.52-.15A26.38,26.38,0,0,1,532,469a6.89,6.89,0,0,1-2.1,1c-8.35,2.25-17.39,1.48-25.92,1a2.11,2.11,0,0,1-.35,0,11.79,11.79,0,0,1-7.6,3.47c-2.47.62-5,2.39-7.45,3.08-2.4,2.37-4.85,4.69-7.07,7.22-1.92,2.2-3.63,4.54-6.57,5.52l-.56.21c-1.51,3.7-2.61,7.9-4.34,11.57a4.35,4.35,0,0,1,0,1.61c-.22,1-.7,1.94-1,2.93-.4,1.26-.75,2.32-2.57,1.94a5.49,5.49,0,0,0-1.28.05,12.45,12.45,0,0,1-1.38.95c-.83.48-1.62.9-2.37,1.28-.71,1.46-1.8,3.25-2.92,5.18-.24.6-.47,1.21-.69,1.82-.29.83-.57,1.57-1.31,1.74a28.82,28.82,0,0,0-2.08,4.8c0,2.13.06,4.26,0,6.35,2.06,1.21,1.9,2.5,1.26,3.85a8,8,0,0,1,.23,7.41c.28,1.6-1.9,3-3.45,3.65a1.68,1.68,0,0,1-1.06,0,33.72,33.72,0,0,1-2.58,3.71c-.09.69-.16,1.37-.21,2.07-.19,2.41-.31,4.82-.61,7.21a5.53,5.53,0,0,1,1.8,3.45c3.68,2.55,3.85,8.59.53,11.49A48.35,48.35,0,0,0,450,581c.38,6,2.36,12.1,4.16,17.76a6.67,6.67,0,0,1,.12,4c.82,1.7,1.71,3.39,2.59,5.12,4.66,9.12,11.81,15,18.84,22.18,5.89,6,10.55,12.94,14.93,20.06,9.66,4,11.83,16.06,14.47,25.41a7.38,7.38,0,0,1-.26,4.59A33.55,33.55,0,0,1,506,689c.09,4.36.89,8.47,1.07,12.41a3.4,3.4,0,0,0,2.1.4c.25-.06.63.43.94.67-.67.86-2,1-3,1.55a21,21,0,0,1-.22,2.24,7.47,7.47,0,0,1,1.3,1.51,8.63,8.63,0,0,0-2,1.34c-.05.16-.12.32-.18.49,1.81,1.38,4.66.49,5.66-1.86,1,1.3,1.14,2.69,2.26,3.73s2.41,1.69,3.63,2.52c0,.22,0,.45,0,.67l-4.45,1.45c-1-.65-.81-2.38-2.58-1.9-1.32.35-1.58,1.13-1.95,2.21s-1,2.27-1.77,2.51c-2.33.72-2.84,2.13-2.6,4.3-.05,1.77-2.2,2-3.52,1.5-.16.71-.3,1.42-.44,2.13a3.7,3.7,0,0,1,1,2.22,6.66,6.66,0,0,1-1.3.13,61.63,61.63,0,0,1-1.08,10.09,2,2,0,0,1-.24,1.31c-.65,3.33-1.47,6.67-2.3,10a173.49,173.49,0,0,0-3.55,20.1c0,.38-.1.82-.12,1.24h0q-.39,3.3-.75,6.63a6.89,6.89,0,0,1,.39.7c.54,1-.08,1.85-.74,2.66-.19,1.85-.39,3.71-.58,5.57a1.57,1.57,0,0,1-.21,2l0,.26c-1.3,12.12-3.19,24.2-5.63,36.14l.67.83-.94.52c-.09.42-.16.84-.25,1.26-.55,2.59-1.19,5.16-1.85,7.74,1.11,3,.61,6.42-.21,9.39l-2-.67c-.11.49-.23,1-.34,1.46a7.63,7.63,0,0,1,.66.82l-.9.24c-.08.35-.15.71-.22,1.07.26.11,1.79,5.83.28,8.39a18.15,18.15,0,0,1,1.29,4.83c-.08,5.49,5.16,7.16,9.65,7.9,2.23.49,6.19-2.32,6.23-4.6a50.3,50.3,0,0,1,2.64-14.08c.48-1.55,1.59-3.25,1.28-4.63-.77-4.89,2.15-9.07,2.32-13.76-.53-5.42,2.1-10.26,2.51-15.56.14-3-.18-6-.09-8.92s2.37-5.42,2-8.54c.57-2.14,2.93-3.87,3.91-5.89a2.36,2.36,0,0,0-.37-2.18,2.92,2.92,0,0,1-.13-4.43,7.24,7.24,0,0,0,1-2l-.5-.24,2.85-2.46.51-4.88-.68,0c-.13,1.48-.16,3-1.17,4.15a5.31,5.31,0,0,1-.89-1.6c.51-3.43,1.71-6.28,3-9.69-2.62-3.52-2-3.07.07-5.71-.36-1-1-1.89-.85-2.55,1.91-6.4,3.71-12.89,6-19.17.56-1.31,2.22-2.31,2.42-3.6.44-2.75,2.12-5.45.75-8.41-.46-1-.13-2.11,1.18-1.94,1.57.2,1.46-.79,1.87-2-4.48,1.81-1.15-5.82-3.37-7.66l.23.61a5.18,5.18,0,0,1-1.46.67c-.2,0-.6-.52-.73-.88-1.15-2.41-1.29-5.59-3.06-7.57-2.23-1.31.88-2.6,1.88-3.41l.39.36c-.4.57-.8,1.14-1.27,1.83a3.14,3.14,0,0,1,2.39,3.68l.49-.1,1.63-1.93c1.72.71.49,1.74.29,2.63s-.49,1.75-.7,2.51h4.11a4.2,4.2,0,0,1,2.42-2.13c.14-.06.74.56.69.66a3.77,3.77,0,0,1-1,1.43c-2.06,1.48-2.09,1.69-.16,3.23.19.15.2.52.29.78,4.21.08.2-4.33,3.62-4.16,1,0,1.84.08,2.22,1.26a1.55,1.55,0,0,0,1,.9c13,1.48,17.56,3.84,18.48-11.62-1.35-1.71-2.71-2.86-3.31-4.33-1-2.49-3.51-2.6-5.33-3.62-2.24-1.27-4.9-1.8-7.37-2.66-1.4-.58-3.23-.85-3-2.81a1.24,1.24,0,0,0-.11-.64c-1.21.2-2.3.68-3.16.42-1.12-.43-1.76-2.3-2.41-3.29-1.1-.88-2.34-1.56-3.42-2.46-1.67-1.39-3.93-2.13-4.42-4.8-1.29-4.28-5.47-1.44-5.18-7.3-5.8.54-2.48-12.87-4.22-16-1.37-.77-1.28-1.67-.62-2.84.11-1.5-.28-3.33.11-4.84a55.58,55.58,0,0,1,6.2-14c1.5-3.19,5.39-2.73,2.8-6.89-1.51-2.63,2.06-4.53,2-7.24.18-1.75,0-3.54.21-5.29.36-2.75,2.35-5.08,2.14-8,0-.34.4-.73.66-1.06,1.25-1.36,2.18-3.06,3.49-4.31,1.88-1.6,3.71-3.12,3-6a1.9,1.9,0,0,1,.11-.93c.91-2.91,1.77-5.85,2.79-8.72a4.19,4.19,0,0,1,3-2.13c-1-2.29-.87-3.56,1-4.78,3-2,5.18-5.16,9.18-5.79-2.58-1.69-1.24-3.39-.57-5.44.73-2.39.53-5.19,2-7.26,4.43,3.13-4.91,7.46,3.73,7.73-2.4-4.51-1.63-5.38,1.7-5.76.95-.2,1.38-.8.35-1.68-1.48-1.25-.47-2.61.16-3.73.19-.33,1.44-.05,2.4-.05-.13-1.35.51-3.68-.71-5a8.48,8.48,0,0,1-2.76,1.43c.16-1.51.89-3.4.77-4.83-1.13-1.43-.21-2.68.3-3.88.65-1.5,1.58-2.87,2.32-4.33,1.8-3.48-.08-7.34,2.56-10.82,1.45-2,2.9-8.68,3-9.91.78-5.28,2.16-10.5,2.92-15.8.36-2.17-.23-4.54,1.92-6.29.67-.54.73-2,.78-3.08-1.08-4.52.81-9.12,1.22-13.69,0-3,.42-6.07.53-9.1,0-1.77.52-10.63,2.18-12.46,1.82-2.4.69-5.77,1.26-8.54.6-4.34,1.42-8.65,2.09-13,.15-1,.45-1.27,1.49-1.06a20.77,20.77,0,0,0,5,.64c1.63-.08,3.23-.74,4.37,1.08a1.22,1.22,0,0,0,1,.31c1.91-.3,4.08.87,5.72-1.08,2.8-.67,5.94-.47,9.06-.85a6.85,6.85,0,0,0,1.7.7,2.28,2.28,0,0,1,1.83,2.72c-.3,1.6-1.63,3.74-1.11,5.29,2.42,1.09,1.63,3.2,1.11,4.69a15.9,15.9,0,0,0-.35,8.39c1.51,5.43-.59,10.77.2,16.13.76,3,1.77,5.89,2.65,8.84.55,4.56.64,9.3,1.79,13.73a56.35,56.35,0,0,1,1.4,10.27c.31,3.75,1.13,7.48,0,11.22.14,2.35.75,4.92.46,7.35-.33,2.81,1,5.66-.48,8.47-.84,1.56-.73,3.84-1.86,5-2.07,2.11-2.14,4.21-1.46,6.72a1.72,1.72,0,0,1-.2,1.4c-1.81,1.53-1.77,3.64-2,5.68l0,0c-.35,1.45-1.37,3.36-.81,4.2,1.25,1.87.68,3.38.35,5.16s-1.24,3.49.26,5.17c.27.31.08,1,.19,1.47.41,2.49,1.64,5.11,1.15,7.64-.81,2.23-.73,5.35,2.16,5.73a3.51,3.51,0,0,0-.93-3.89c1.26.27,2.2.78,2.61.5,1.22-.84,1.81-.36,2.36,1.15a13.7,13.7,0,0,1,4.94-3.72c-.2,1-.14,1.67-.42,2-2,2.6,2.46,4.54,3.83,6.4.84-1.62.11-3-1-4.44-.33-.42-.23-1.19-.32-1.8,1.69-.31,2.43,0,3.83,1.3l-1.18-3.23c-2.49-1.34-2.26-1.23-1-3.26,1,.63,1.91,1.65,2.9,2.28,1.56.67,1.48,1.91,1.22,3.19a4.15,4.15,0,0,0,2.29,4.07c-.74-2-2.28-4-.29-6.07,2.93,4.54,7,3.88,5.39-2.06-1,.41-1.58-.48-2.31-1a13.13,13.13,0,0,1,1.62-1.36c1.49,1.33,2.89.32,4.19-.17,2.06-.76,4.4,0,6.36-1.51,3.69-2.38,4.76,4.05,8.46,3.18a40.69,40.69,0,0,1,7.14-.23,3.18,3.18,0,0,0,3.6-.89c2-2.17,4-4.33,5.81-6.66,2.23-3.7,3.24-8.32,5.66-11.94,1.16-1.59.67-2.94.32-4.45.22-4,2.32-7.21,4.93-10.14l.69.16c.44,1.74.89,3.48,1.39,5.47a4.86,4.86,0,0,1,1.86-.06c.62.2,1,1.17,1.64,1.28,1.82.34,1.32,2.51,2.73,3.18.51.25.75,1.11,1,1.72.74,2.16,2.68,4.28,1.78,6.65-.8,1-1.32-.09-1.7-.81-.87-1.86-2.37-3.45-2.46-5.65,0-.14-.47-.27-.76-.42-.08,1.36-.16,2.56-.25,4-2.47-1.65-3-1.94-5.84,3.15.74-.2,1.34-.2,1.68-.49,1.05-.89,1.91-1.74,3,0,.61.53,2.55.25,3.46-.08l.26.48c-.79.35-1.8,1.52-1.55,2.26a2.66,2.66,0,0,0,1.58.53c.29,0,.6-.57.92-.58a6.58,6.58,0,0,1,1.61.29c-.46,1.9-2.31,2.65-3.72,3.8l.6.28c.21.87.79,1.84.57,2.59-.5,1.75.4,3.7-.81,5.3l.27.12,2.45-1.77c-.26-1.42-.54-2.91-.82-4.4-.5-3.73,5-7.63,5.15-1.5.18,1,.66,2,.43,2.91-.88,3.44-.37,7.26-2.65,10.34-.54,2.28-.24,4.76-.67,7.08-1.43,3.34-3.5,6.7-5.07,10-1.21,5.21-3.65,10-5.77,14.8-1.86,4-5.15,7.24-5.34,11.86a4.16,4.16,0,0,1-.39,1.44c-2.79,5.31-6.16,10.28-9.24,15.42-1.2,3.69-1.54,7.79-3.89,11.05-.75,1.19-1.7,2.26-2.44,3.46s-1,3.1-2.1,3.71c-2.08,1.21-2.2,3.27-2.87,5A7.19,7.19,0,0,1,653,671c-2.14,1.7-3.63,4.34-5.37,6.49-1.3,1.54-1.83,3.64-3.05,5.16-2.65,2.32-3.21,5.8-5.1,8.61C636.85,695,633.29,698,631,702a40.15,40.15,0,0,1-5.21,8.76c-1.88,2.26-1.7,9.16-5.88,6.89a1.81,1.81,0,0,0-1.37.06c-1.41.68-1.14,1.92-.94,3.13.23,1.42,0,2.37-1.76,2.7-1.33.26-2.74,1-2.61,2.9-.21,1.6-1.64,2.88-2.55,4.29,3.27,1.74,1.61-.73,3.42-2.11.13-.11.93.27.91.35a28.34,28.34,0,0,1-.82,4.7c-.3.94-1.33,1.65-1.67,2.6-.57,1.58-1.32,2.4-2.71,1.68-.74,2.8-2,5.4-2.17,8.24-.95,2.42-2,4.82-3.15,7.16-1.06.78-3.13.74-4.48,1.11l.09.66,3,.75c-2,1-2.26,2.2-1.58,3.69.14.3,0,1.08-.29,1.18-1.91.78-1.44,2.37-1.45,3.83.47,4.75-2.15,8.67-2.57,13.33a9.5,9.5,0,0,0-2.21-1.57c-1.21,2-.1,3.82.18,6.08-1.07,2-2.31,4.21-3.52,6.48a1.15,1.15,0,0,0-.08.92c1.09,2,0,3.27-1.21,4.67-.75,1.07-1.95,2.89-.85,4.12,1.55,1.5,1.57,3.09-.35,3.82s-2.74,1.53-2.3,3.72c-1.08-.75-2.09-2.59-3.25-2.63-1.43.81-2.7.09-4-.16-3.73-.79-1.81,3.07-1.49,5.29l2-.13c-.74-1.47-2-2.55-.55-4.14.89,1.5,2,2.85,3.69,3.17s3.53,3.11,2.63,4.79c-.73.9-2.17.94-3.21,1.35.65.72,1.3,1.57,2,2.21.16.87.6,1.85.34,2.58-.16.47-1.34.72-2.1.8a6.82,6.82,0,0,1-2.08-.65l1.35,1.95c-.93.63-3.34,2.21-1.3,2.92,2,.5,2.24,1.68,1.61,3.42a18.09,18.09,0,0,1-1.34,5.32c-.15,1.94,2,3.78.24,6.08a4.8,4.8,0,0,0-.74,2.63c0,1.23.79,2.72.33,3.64-.76,1.5-.47,4.25-3,3.74-.29,2.4-.55,4.57-.82,6.71-1,.31-2.7.08-1,1.83.74,2.08-.82,3-2.67,4,.74.27,1.26.65,1.72.58,2.39-.32,2.72,0,2.89,2.39.24,4.13.63,8.3,2.73,11.93l-1.79.62c.92.8,2.21,1.22,3.05,2,1,1.16,1.84,2.45,2.94,4,.87-1.49.92-4,2.35-4.84,1.61-5.15,3.41-10.25,5.56-15.42,4.44-10.67,6.23-22.27,8.72-33.49,2.18-9.84,5.38-19.39,8.11-29.08a6.43,6.43,0,0,0-.18-1.14,2.88,2.88,0,0,1,1.37-3.23c.15-.57.31-1.14.46-1.72,3.19-12.57,6-25.21,10.16-37.52a7.08,7.08,0,0,1,3.89-4.37c.47-.66.77-1.19,1-1.17a3.45,3.45,0,0,0,1.49-.21,69.17,69.17,0,0,1,3.42-8.12,2.71,2.71,0,0,1,.34-1c.13-.19.28-.36.43-.54q1.38-2.58,3.07-5.12c-.52-1.6.19-2.61,1.66-3.47a3.71,3.71,0,0,0,2.14-3.69,2.84,2.84,0,0,1,.37-2c2.89-3,4.72-6.63,6.82-10.21,2.41-2.74,4.72-5.69,7-8.64,1.25-3.61,2.83-7.12,4.4-10.71a5.85,5.85,0,0,1,2.3-2.73c.51-1.12,1.1-2.23,1.64-3.34a5.5,5.5,0,0,1,1.27-1.93,7.78,7.78,0,0,1,3.57-3.1c4.83-6.08,7.87-13.58,11.4-20.45A66,66,0,0,1,685,655.12a5.54,5.54,0,0,0,1.11-1.89c.92-3.93,1.55-7.78,3.58-11.27,1.42-1.3,1.43-1.46,1.85-3.63a111.84,111.84,0,0,0,5.92-12.15c.43-1,1.62-2.15.12-3.37-.17-.15.12-.88.18-1.22,1.5,1.08,1.77,1,2.64-.51.22-.37.18-.91.44-1.24,1-1.37,1.36-3.35,3-4.24a47.27,47.27,0,0,1,2.58-8.64c.09-.59.18-1.17.32-1.75a17.64,17.64,0,0,1,1.28-3.34c0-6.73.69-13.45,1.3-20.15a7.58,7.58,0,0,1,.71-2.52,97.51,97.51,0,0,1,1.83-10.94A5.45,5.45,0,0,1,711.89,563.43ZM500.87,733c-1.18-1.63-1.37-1.66.08-2.75C502.13,731.41,501.93,731.56,500.87,733Zm49.41-238.74c.31,1.48.35,2.66-1.45,2.93C548.84,496.07,548.33,494.69,550.28,494.28ZM547.66,469l1.54-.41c.36,1.52-.5,2.34-2.15,1.88Zm-49,62.13a6.83,6.83,0,0,1,1.85-.52c.09.34.18.68.28,1l-2.27.79C498.54,532,498.42,531.27,498.64,531.13Zm-.52,4c.85.42,1.7.84,2.54,1.27-.22.32-.4.88-.66.92C498.79,537.47,498,537,498.12,535.09Zm10.06,74.18a11.57,11.57,0,0,0-2.54,7.37c0,.61-.27,1.59-.64,1.71a2.26,2.26,0,0,1-2-.37c-3.09-4.21-8.28-1.43-12.05-4.29-7.18-3.47-14.71-6.72-18.44-14.3-2.45-4.8-5.95-9.62-5.87-15.21-.28-2.07-1-7.16,2.55-5.77,3.45,2.31,7.14,4.33,9.8,7.63.26.33.16,1,.23,1.44l-1.42-.14.54.25-2.62,1.58c1.82,2.55,3,5.64,6.81,6,1.34.36,2.56,1.51,3.9,2.11.92-2.72-.11-4.08-2.59-4.46a11.8,11.8,0,0,1-4.17-1.93c-.27-.17-.18-1.52.18-2,.87-1.07,3.8-1.12,4.73-.14a67.82,67.82,0,0,1,5,5.83,4.94,4.94,0,0,1,4.32,2.84c.06.1.49.12.63,0,1.42-1.06,1.78.22,2.44,1.17.5-.71.93-1.3,1.74-2.43.54.87.94,1.5,1.34,2.13l.25-.61a19.12,19.12,0,0,1,3.14.86c1.27.6,4.94,4.59,5.56,5.75A4.92,4.92,0,0,1,508.18,609.27Zm5.25,94.81c2.32,0,2.76,1.38,2.71,3.31,0,.39.59.77.78,1.2a5.34,5.34,0,0,1,.2,1.27c-.5-.09-1.26,0-1.45-.3a7.48,7.48,0,0,1-1.13-2.57c-.54-2.6-.83-2.73-3.41-1.1C511.29,703.63,511.19,703.69,513.43,704.08Zm8.12-126.6a6.45,6.45,0,0,0-2,3.6c-.25,1.59-1.71,3-2.62,4.44-2.45-1.34-5.15-2.35-7.28-4.08-3.55-2.88-8.45-2.18-12-5a2.61,2.61,0,0,0-1.63-.41c-2.74.18-4.68-1.45-6.74-2.85-3.39-1.62-5.54-4.67-8.7-6.59-.1-.07-.32,0-.35-.12-1-2.43-3.85-3-4.94-5.85-1.53-4-1.48-7.85-1.84-11.83-.87-5.16-3.3-10.09-2.36-15.43.68-5.44,7.53,3.41,9.11,4.76,2.88,3.81,5.17,8.34,8.93,11.43,3,2.28,6.21,4.39,9.36,6.52,1.43,1,3.18,1.56,3.22,3.75,0,.27.69.79,1,.75,3.3-.5,5.6.7,6.95,3.77,3.19,3.17-.08,2-.17,4.67a2.52,2.52,0,0,0,3.85,1.55c.28-.15.05-1.23.05-2.42,2.15,1.56,3.52,3.56,5.72,4.31C522.08,572.1,524.06,575.52,521.55,577.48Zm13.66-25.37a17.15,17.15,0,0,1-1.52,2.55c-.55,1-1.09,1.84-2.44,1.47-1.76-.47-1.45,1.3-2.13,2.1-1.11-.38-2.45-.35-2.44-2.07-2.48-3.38-7.48-4-11.24-5.42-2.05-.7-2.75-1.93-2.58-4.15a2.1,2.1,0,0,0-.53-1.25c-2.11-1.62-2.12-4.13-4.82-2l-5.21-3.2c2.52-1.59,3.88-2.59.85-4.87-.82-.65-1.11-1.95-1.68-3,3-.83,3.81-.32,4.56,2.28.57,1.17,1.73,2.27,2.26,3.53.3-.67.3-2.36.87-2.57,1.27-.61,2.35,0,3.38,1.21a28.44,28.44,0,0,0,4.38,3.51c-1.34,1.51-1.33,1.54,1.8,4.25.17-.78.31-1.48.55-2.61,3.28,2.62,8,2.69,11.21,4.87,1.43,1.29,2.19,3.22,4.5,3.39A3.2,3.2,0,0,1,535.21,552.11Zm13.13-30.32c-.84.72-1.56,2-3.17.88,1.17-.95,1.77-2.4,3.37-2C548.48,521.05,548.56,521.6,548.34,521.79ZM546.6,519c-1.27.93-2.13,2.63-3.17,3.86,1.76.71.63,1.72-.1,2.74-1.1,1.52-2.17,3-3.25,4.58l.41.3c-.11.06-.26.18-.33.15-4-2.12-8.25-3.79-12.34-5.67-3.62-1.86-6.73-4.71-10.58-6.1-.84-.33-2.13-.39-2.47-1-1.45-2.55-4.28-1.9-6.37-3.41,1.22-3.46,5.31-4.29,8-6.33,2.74-2.55,6.17-4.35,8.37-7.06.63-1,.92-2.44,2.47-2.19.48.08,1.3.86,1.23,1.07a8.85,8.85,0,0,1-1.63,3.36c-.83.85-2.07,1.26-1.39,2.92l2.08-.49c.17,1,.33,1.9.49,2.84l.5.3,2.16-2.8-2.11-1c.67-2,2.56-3.44,1.13-5.54-1-1.46.55-2.27,1.58-3.72,0,2-.34,2.89.63,4.29,1.63-.7,2.47-1.7,4.1-2.93a45.86,45.86,0,0,1,2,4.64c.06.21-1.13.93-1.83,1.23-.46.2-1.21-.12-1.56.15a7.11,7.11,0,0,0-1.25,1.72c2.06,1.31,4.29-.31,6.29-.75-.1-3-1.81-6.16.74-8.05.61-.29,1.63.34,2.48.52a29.47,29.47,0,0,0,5.78.62,9.47,9.47,0,0,0-3,2c-.15.15.08.65.14,1a3.06,3.06,0,0,0,1-.22c.36-.23.57-.77,1-.89a9.35,9.35,0,0,1,1.93-.24c.46,2.26-.64,4.2-1.68,6.34-.19-1.15-.37-2.3-.56-3.47-1.84,1.27-2.47,3.24-1.72,5.9.28-1,.47-1.66.79-2.77.54,3,3.39,9.57-2.11,7.05a21,21,0,0,0,.73,4.07c.18.5,1.34.65,2.06,1l.22-.45-1.32-2.28.75-.5C548.59,516,549.93,517.54,546.6,519Zm3.69-6.21c-.18.27-.7.63-.86.55-1.49-1-.37-3.49-.53-5.27C551.19,509.44,551.55,510.92,550.29,512.78Zm58.21,48.08-.69-.11v-3c.49.2,1.32.43,1.31.58A16.06,16.06,0,0,1,608.5,560.86Zm4.81-133.11c-.33.1-1.39-.8-1.32-1.07a7.21,7.21,0,0,1,1.17-2h.74c.32.57,1,1.22.86,1.68A2.36,2.36,0,0,1,613.31,427.75Zm1.33-11c-.62,1.07-.74,2.52-1.79,3.62a1.17,1.17,0,0,1-.81-.21,3.85,3.85,0,0,1,.05-1.76c1.54-3.74,1.09-7.65,1.1-11.52,0-1.82-1.51-2.12-2.52-3a17.35,17.35,0,0,1-3.15-2.95c-.61-1.78,1.21-3.21,3-3.12.8.16,1.33,1.94,1.9,2.51a4,4,0,0,1,2.32,3.81c2,1.19,1.91,4.14,2.86,5.86C617.39,413.07,616.57,415.15,614.64,416.77Zm49.74,109.69c.06.11-.33.65-.45.63-1.76,0-1.56-1.86-2-3.1l.77-.46C663.28,524.5,663.87,525.46,664.38,526.46Zm-4-9.53c1,1.84.91,1.88,3.42,2.37L660.7,521c-1-3.19-2.89,1.17-4.2-1.22-.14-2.65,0-3,2.32-3.52A1.78,1.78,0,0,1,660.37,516.93Zm2.43,23.14c-2.27,2-2.17,4.62-1.83,7.11.25,1.79.16,3.21-1,4.58-1,1.81-.28,4.17-.48,6.18l-.81-.43c-1.3,1-2.61,2.12-4.31,2.34-.25-.61-1-2.21-1.77-2.63-.16-.11-1.12.48-1.1.72,0,2,2,2.6,3,4.26l1.78-.27c-1.92,1.89-3.17,4.81-6,4.19-1,1.44-1.47,2.09-2.32,3.13-1.21,3-4,3.48-6.69,4-2.25.46-2.89-1.95-3.13-3.67-2.7,1.28-2.79,1.53-1.76,4.29.34.92.66,2.06-.67,2.28-.44.07-1.13-1-1.6-1.61-.2-.27,0-.89-.2-1.09a23.94,23.94,0,0,0-2.23-1.62,36,36,0,0,0-.16,3.74l-.6.07-.8-1.61c-1.82,2.5-2.67,2.84-5.24,1.87l3-4.17a2,2,0,0,0-2.54,1c-.2.35-.72.52-1.1.77-1.17-2,.65-3.61,1.29-5.45a2.6,2.6,0,0,0,.29-1.42c-.47-2.37-.1-3.93,1.84-4.91,1.6-.81,1.14-1.77.88-3-.36-2.64,1.3-6.23,3.94-7-.47-1.21-.78-2.19-1.23-3.1-1.32-2.66-.3-5.24,0-7.89s.32-5.15.46-7.74c1.9-.74,1.9-.74,3.81,3.18l-.25-3.07.29.1a20.05,20.05,0,0,0,.85-3.92c0-2,.32-2.33,2.44-1.59.27-3.48-3.76-3-4.56-.4-.3.92.26,2.12.46,3.34-2,0-4.13-.15-4.33-2.41.12-2.46-1.12-5,.4-7.41-.53-1.53-.11-3.44-.07-5.09a21.91,21.91,0,0,0,.4-3.28c-.09-1.46-.3-2.82,1.42-3.49.11,0,.26-.13.3-.23,1-2.72,3.36-2.76,5.55-2.34,2,.38,4,1.29,4.81,3.51.09.25.43.41.84.78.69-3.2,3.73-2.35,5.43-.68.27-1.12,1-1.22,2.22-.44,2,1.21,4,2.19,6.06,3.31.22.13.51.6.45.7-.6.83-1.4,2.46-2.54,1.35-1-1.52-3.17-.69-4.29-2-2.3.69,1,2.64,1.95,3.46a5.06,5.06,0,0,0-2,1.42c1.19,1.81,3.9,1.21,4.67,3.59a1,1,0,0,0,.76.49c1.27-.09,1.69.69,2.15,1.68,1.25,2.73,1.23,2.91-1.29,4.17,1.9,2.4,3.6,4.84.86,8.25C661.43,535.61,665.51,536.91,662.8,540.07Zm.1-4.5-2.11-1.63a14.39,14.39,0,0,1,2.36-2.05c.2-.12,1.35.85,1.29,1A22.36,22.36,0,0,1,662.9,535.57Zm3.19-5.54-.79-.29c0-2.55,0-5.11,0-7.66,0-.29.62-.87.8-.81a5.89,5.89,0,0,1,2.26,1.1c.72,1.62-.58,2.32-1.32,2.9l1.71.89C667.86,527.48,667,528.76,666.09,530Zm4.29.08-.37.19A10.73,10.73,0,0,1,668.9,528c-.06-.28.72-.75,1.48-1.5ZM615.45,726.79a16.54,16.54,0,0,1,2.52-2.5c.15-.11.93.6,1.21.8C619,727.41,616.22,729.17,615.45,726.79Z" transform="translate(-216.39 -194.5)"/><path d="M523.88,673.42c-2.63-.68-5.12-3.6-8.34-.69.35-2,.69-3.91,1.11-6.28a19.34,19.34,0,0,0,7.41,6.48Z" transform="translate(-216.39 -194.5)"/><path d="M676.88,565.37c-.28-2.08-.78-3.6.9-4.8.48-.68-.3-2.29-.24-3.22a5,5,0,0,1,2.66,4.76C680.15,563.14,678.26,564.09,676.88,565.37Z" transform="translate(-216.39 -194.5)"/><path d="M560.78,816.16c1,1.28.15,7.37-1,8.36C558.49,820.68,558.56,820.06,560.78,816.16Z" transform="translate(-216.39 -194.5)"/><path d="M616.57,590.77c-1.58-.92-4.31-2.09-3.16-4.21C616.88,584.51,617.64,588.13,616.57,590.77Z" transform="translate(-216.39 -194.5)"/><path d="M534.07,733.5c1.94.14,4.59-.41,5.09,1.69a7.67,7.67,0,0,1-1.48,2.2A30.91,30.91,0,0,1,534.07,733.5Z" transform="translate(-216.39 -194.5)"/><path d="M516.86,655.92c1.5,1.41.86,2.91.41,4.29-.07.23-1.26.36-1.72.12s-.87-1.15-.71-1.49A20.61,20.61,0,0,1,516.86,655.92Z" transform="translate(-216.39 -194.5)"/><path d="M513.54,805.54a27.79,27.79,0,0,1-2.1-3.78l-.59.57c.17-1.18.35-2.36.53-3.53l.47,0C512.43,800.87,514.38,802.58,513.54,805.54Z" transform="translate(-216.39 -194.5)"/><path d="M536.64,741.37c.51,1.35,2.36,4.13-.27,3.75C534.86,743.85,533.69,741.31,536.64,741.37Z" transform="translate(-216.39 -194.5)"/><path d="M636.58,584a44.41,44.41,0,0,1,3.69-4.59c.22.34.64.69.63,1,0,.64-.1,1.65-.47,1.82-.8.37-1.85.22-1.86,1.56A18.32,18.32,0,0,1,636.58,584Z" transform="translate(-216.39 -194.5)"/><path d="M517.51,676.51l.63-1.1,4.23,1.67c-1.92,2.81-3,.6-4.9-.62Z" transform="translate(-216.39 -194.5)"/><path d="M604.27,567.16c.37-1.18.7-2.37,1.14-3.51a.89.89,0,0,1,1.57.51C607.11,565.8,606.24,566.79,604.27,567.16Z" transform="translate(-216.39 -194.5)"/><path d="M679.28,551.67c2.45-.51,3.85,1.65,3,3.76Z" transform="translate(-216.39 -194.5)"/><path d="M644.31,578.19c.17,1.23,1.39,3.34,0,4.09-2.18-.38-.87-2.65-.87-4.11Z" transform="translate(-216.39 -194.5)"/><path d="M557.45,851.49l1.66-1.72c.36.54,1.08,1.13,1,1.59a6.59,6.59,0,0,1-1.21,2.07C558.49,852.87,558.07,852.32,557.45,851.49Z" transform="translate(-216.39 -194.5)"/><path d="M535.34,719.86c.66,2.14,1.17,3.8,1.68,5.48C535.34,725.54,534.31,722.87,535.34,719.86Z" transform="translate(-216.39 -194.5)"/><path d="M558.26,697" transform="translate(-216.39 -194.5)"/><path d="M530.58,729.41c.93-.15,2-.54,2.13-.31a5.56,5.56,0,0,1,1,3.17Z" transform="translate(-216.39 -194.5)"/><path d="M681.6,568.83a11.93,11.93,0,0,1,1.31-1.23,18,18,0,0,1,1.68,1.59C683.23,570.73,683.05,570,681.6,568.83Z" transform="translate(-216.39 -194.5)"/><path d="M520.21,641.58l4.2-1.74C523.28,642.43,522.61,642.71,520.21,641.58Z" transform="translate(-216.39 -194.5)"/><path d="M581,797.94c2.3-1.3,3.63.27,2.32,2.1Z" transform="translate(-216.39 -194.5)"/><path d="M575.26,871.78c-1,.71-2.93,2.78-3.22.43.23-1.48,2.18-.68,3.22-.86Z" transform="translate(-216.39 -194.5)"/><path d="M515.29,651.16l1.89,1.13.08.54-2.18.69-.52-2.19Z" transform="translate(-216.39 -194.5)"/><path d="M529.81,721.63l1.85,1.52c-.12,1.28-.75,2-2.44,1.63.22-1.09.42-2.11.62-3.13Z" transform="translate(-216.39 -194.5)"/><path d="M543,728.24l1.82,2.55c-1.58.88-2-.35-2.49-1.23-.18-.34.09-.91.16-1.37Z" transform="translate(-216.39 -194.5)"/><path d="M533,606c.17.7.35,1.4.52,2.11l-1.91-.15.44-2Z" transform="translate(-216.39 -194.5)"/><path d="M557.85,813.17l.86-2.3c.31.14.9.33.89.42a23.39,23.39,0,0,1-.6,2.29Z" transform="translate(-216.39 -194.5)"/><path d="M602.84,747.56c-.9-.56-2.71-.58-2.84-1.81C600.93,744.35,602.91,746.07,602.84,747.56Z" transform="translate(-216.39 -194.5)"/><path d="M597.07,770.77c-1.19-.78-2.75-1.14-2.54-2.88,1.46.15,2,1.51,2.86,2.54Z" transform="translate(-216.39 -194.5)"/><path d="M604.53,744.93c-1.23.5-2-.2-2.59-1.15a7.82,7.82,0,0,1,2.95.46Z" transform="translate(-216.39 -194.5)"/><path d="M555.81,574.58h.59C556.4,575.6,555.34,575.59,555.81,574.58Z" transform="translate(-216.39 -194.5)"/><path d="M612.16,725.92c-1.16.91-1.81,1.72-2.27.1a1.29,1.29,0,0,1,.87-.84C611.05,725.11,611.44,725.52,612.16,725.92Z" transform="translate(-216.39 -194.5)"/><path d="M592.79,457.27" transform="translate(-216.39 -194.5)"/><path class="cls-5" d="M628,571.79a2,2,0,0,0-2.62,1c-.2.35-.72.52-1.1.77-1.17-2,.65-3.61,1.29-5.45a2.6,2.6,0,0,0,.29-1.42c-.47-2.37-.1-3.93,1.84-4.91,1.6-.81,1.14-1.77.88-3-.36-2.64,1.3-6.23,3.94-7-.47-1.21-.78-2.19-1.23-3.1-1.32-2.66-.3-5.24,0-7.89s.32-5.15.46-7.74c1.9-.74,1.9-.74,3.81,3.18l-.25-3.07.29.1a20.05,20.05,0,0,0,.85-3.92c0-2,.32-2.33,2.44-1.59.27-3.48-3.76-3-4.56-.4-.3.92.26,2.12.46,3.34-2,0-4.13-.15-4.33-2.41.12-2.46-1.12-5,.4-7.41-.53-1.53-.11-3.44-.07-5.09a21.91,21.91,0,0,0,.4-3.28c-.09-1.46-.3-2.82,1.42-3.49.11,0,.26-.13.3-.23,1-2.72,3.36-2.76,5.55-2.34,2,.38,4,1.29,4.81,3.51.09.25.43.41.84.78.69-3.2,3.73-2.35,5.43-.68.27-1.12,1-1.22,2.22-.44,2,1.21,4,2.19,6.06,3.31.22.13.51.6.45.7-.6.83-1.4,2.46-2.54,1.35-1-1.52-3.17-.69-4.29-2-2.3.69,1,2.64,1.95,3.46a5.06,5.06,0,0,0-2,1.42c1.19,1.81,3.9,1.21,4.67,3.59a1,1,0,0,0,.76.49c1.27-.09,1.69.69,2.15,1.68,1.25,2.73,1.23,2.91-1.29,4.17,1.9,2.4,3.6,4.84.86,8.25,2.92-.42,7,.87,4.29,4-2.27,2-2.17,4.62-1.83,7.11.25,1.79.16,3.21-1,4.58-1,1.81-.28,4.17-.48,6.18l-.81-.43c-1.3,1-2.61,2.12-4.31,2.34-.25-.61-1-2.21-1.77-2.63-.16-.11-1.12.48-1.1.72,0,2,2,2.6,3,4.26l1.78-.27c-1.92,1.89-3.17,4.81-6,4.19-1,1.44-1.47,2.09-2.32,3.13-1.21,3-4,3.48-6.69,4-2.25.46-2.89-1.95-3.13-3.67-2.7,1.28-2.79,1.53-1.76,4.29.34.92.66,2.06-.67,2.28-.44.07-1.13-1-1.6-1.61-.2-.27,0-.89-.2-1.09a23.94,23.94,0,0,0-2.23-1.62,36,36,0,0,0-.16,3.74l-.6.07-.8-1.61c-1.82,2.5-2.67,2.84-5.24,1.87l3-4.21c.67.17,1.6.7,2,.45,1.75-1.29-1.1-2.27-.26-3.69,3-.34,4.18.35,3.2-3.42-.28-1.33-1.15-2.74.2-4.26.51-.57.11-2.16-.23-3.16-.08-.25-1.54,0-2.76,0,1.34,2.08,2.61,3.65.13,5-.15.08-.09.72,0,1.05.5,1.48,0,2.36-1.38,3-1,.51-1.92,1.2-.91,2.67C628.24,570,627.94,571,628,571.79Zm9.85-9.6.32-4.07c-1.61.57-1.62.56-3.51,3.36-.23.33-.46,1-.31,1.15a1.54,1.54,0,0,0,1.27.48A13.39,13.39,0,0,0,637.8,562.19Zm6.72,7.63.68,0c.33-2.31.67-4.63,1-7l-3.28,1.48c.05.48,0,1.55.18,1.62C645.24,566.67,644.35,568.44,644.52,569.82Zm-4.25-3.49c-1.88.9-1.88.9-.43,2.46a2.63,2.63,0,0,0,2,1.42C644,569.35,641.45,567.13,640.27,566.33Zm-4.93-26.89c-.91,2.31-2.3,3.4-4.14,4.81l.43.82C634.51,544.72,636.38,542.48,635.34,539.44Zm15.3,14.62c1.77.46,2.67-.08,3.78-1.34C653.87,550.71,651.08,552.54,650.64,554.06Zm1.44,10.16a14,14,0,0,0-.75-2.15c-.13-.27-.74-.31-1.14-.46-.06.44-.32,1.1-.14,1.27A13.2,13.2,0,0,0,652.08,564.22ZM647.86,560c.42-.58.83-.91.88-1.29s-.67-.82-.75-.78a3.73,3.73,0,0,0-1.08,1C646.87,559,647.38,559.45,647.86,560ZM635,566.32l-.94.36.64,1.89c.28-.17.83-.38.81-.5A12.06,12.06,0,0,0,635,566.32Zm-3,2.79-.4.92,2,.82c0-.35.22-.92.09-1A10,10,0,0,0,632,569.11Z" transform="translate(-216.39 -194.5)"/><path class="cls-5" d="M513.44,568.17c2.15,1.56,3.52,3.56,5.72,4.31a3.11,3.11,0,0,1,3.36,1.9c.57,1.19,0,2.09-1,3.1a6.45,6.45,0,0,0-2,3.6c-.25,1.59-1.71,3-2.62,4.44-2.45-1.34-5.15-2.35-7.28-4.08-3.55-2.88-8.45-2.18-12-5a2.61,2.61,0,0,0-1.63-.41c-2.74.18-4.68-1.45-6.74-2.85-3.39-1.62-5.54-4.67-8.7-6.59-.1-.07-.32,0-.35-.12-1-2.43-3.85-3-4.94-5.85-1.53-4-1.48-7.85-1.84-11.83-.87-5.16-3.3-10.08-2.36-15.43.68-5.44,7.53,3.41,9.11,4.76,2.88,3.81,5.17,8.34,8.93,11.43,3,2.28,6.21,4.39,9.36,6.52,1.43,1,3.18,1.56,3.22,3.75,0,.27.69.79,1,.75,3.3-.5,5.6.7,6.95,3.77,3.19,3.17-.08,2-.17,4.67a2.52,2.52,0,0,0,3.85,1.55C513.67,570.44,513.44,569.36,513.44,568.17Z" transform="translate(-216.39 -194.5)"/><path class="cls-5" d="M496.92,598.65l1.74-2.43,1.34,2.13.25-.61a19.12,19.12,0,0,1,3.14.86c1.27.6,4.94,4.59,5.56,5.75a4.92,4.92,0,0,1-.77,4.92,11.57,11.57,0,0,0-2.54,7.37c0,.61-.27,1.59-.64,1.71a2.26,2.26,0,0,1-2-.37c-2.1-3.11-5.39-2.34-8.33-2.83-8.44-3.39-17.74-7.22-22.16-15.76a89.43,89.43,0,0,1-5.42-11.08c-.53-1.22-.34-2.75-.45-4.13-.29-2.07-1-7.16,2.55-5.77,3.45,2.31,7.14,4.33,9.8,7.63.26.33.16,1,.23,1.44l-1.42-.14.54.25-2.62,1.58c1.82,2.55,3,5.64,6.81,6,1.34.36,2.56,1.51,3.9,2.11.92-2.72-.11-4.08-2.59-4.46a11.8,11.8,0,0,1-4.17-1.93c-.27-.17-.18-1.52.18-2,.87-1.07,3.8-1.12,4.73-.14a67.82,67.82,0,0,1,5,5.83,4.94,4.94,0,0,1,4.32,2.84c.06.1.49.12.63,0C495.9,596.42,496.26,597.7,496.92,598.65Z" transform="translate(-216.39 -194.5)"/><path class="cls-5" d="M548.78,497.23a9.39,9.39,0,0,0-3.13,2c-.15.15.08.65.14,1a3.06,3.06,0,0,0,1-.22c.36-.23.57-.77,1-.89a9.35,9.35,0,0,1,1.93-.24c.46,2.26-.64,4.2-1.68,6.34l-.56-3.47c-1.84,1.27-2.47,3.24-1.72,5.9l.79-2.77c.54,3,3.39,9.57-2.11,7.05a21,21,0,0,0,.73,4.07c.18.5,1.34.65,2.06,1l.22-.45-1.32-2.28.75-.5c1.78,2.19,3.12,3.78-.21,5.23-1.27.93-2.13,2.63-3.17,3.86,1.76.71.63,1.72-.1,2.74-1.1,1.52-2.17,3-3.25,4.58l.41.3c-.11.06-.26.18-.33.15-4-2.12-8.25-3.79-12.34-5.67-3.62-1.86-6.73-4.71-10.58-6.1-.84-.33-2.13-.39-2.47-1-1.45-2.55-4.28-1.9-6.37-3.41,1.22-3.46,5.31-4.29,8-6.33,2.74-2.55,6.17-4.35,8.37-7.06.63-1,.92-2.44,2.47-2.19.48.08,1.3.86,1.23,1.07a8.85,8.85,0,0,1-1.63,3.36c-.83.85-2.07,1.26-1.39,2.92l2.08-.49.49,2.84.5.3,2.16-2.8-2.11-1c.67-2,2.56-3.44,1.13-5.54-1-1.46.55-2.27,1.58-3.72,0,2-.34,2.89.63,4.29,1.63-.7,2.47-1.7,4.1-2.93a45.86,45.86,0,0,1,2,4.64c.06.21-1.13.93-1.83,1.23-.46.2-1.21-.12-1.56.15a7.11,7.11,0,0,0-1.25,1.72c2.06,1.31,4.29-.31,6.29-.75-.1-3-1.81-6.16.74-8.05.61-.29,1.63.34,2.48.52a30.41,30.41,0,0,0,5.94.63Zm-15.61,14.48c-2.29.22-4.49-1.64-6.9-.45,2.16,1,6,3.53,6.85.4.6.11,1.2.19,1.78.35,1.2.33,3-.6,3-1.59-.65,0-1.46.35-1.93.07C534.36,509.52,533.71,510.38,533.17,511.71Zm7.39-1.88.29.18c.24-.4.66-.79.69-1.2.11-1.68,1.68-2.92,1.18-4.88-.19-.75,1.07-1.78,1.4-2.78.2-2-1.66-1.72-2.79-1.65C541.05,503.22,540.8,506.53,540.56,509.83Zm-18.57,0,.75-.1-.42-4.21-2.06,2.69Zm-3.69-1.09v3.62C520.21,510.14,520.1,509.05,518.3,508.75Z" transform="translate(-216.39 -194.5)"/><path class="cls-5" d="M507.51,543.35l-5.21-3.2c2.52-1.59,3.88-2.59.85-4.87-.82-.65-1.11-1.95-1.68-3,3-.83,3.81-.32,4.56,2.28.57,1.17,1.73,2.27,2.26,3.53.3-.67.3-2.36.87-2.57,1.27-.61,2.35,0,3.38,1.21a28.44,28.44,0,0,0,4.38,3.51c-1.34,1.51,2.11,2.77,2.35,1.64a24.16,24.16,0,0,0,5,2.5c2.1.77,8.39,5.59,10.7,5.76a3.2,3.2,0,0,1,.23,2,17.15,17.15,0,0,1-1.52,2.55c-.55,1-1.09,1.84-2.44,1.47-1.76-.47-1.45,1.3-2.13,2.1-1.11-.38-2.45-.35-2.44-2.07-2.48-3.38-7.48-4-11.24-5.42-2.05-.7-2.75-1.93-2.58-4.15a2.1,2.1,0,0,0-.53-1.25C510.22,543.72,510.21,541.21,507.51,543.35ZM527.58,551c.5-2,0-2.76-1.54-2.72-.91,0-2-.95-2.94-.29-.88,1.36,5,7.87,6.52,7.46,2-.58.9-1.93-.37-2.61C528.59,552.16,528,551.44,527.58,551Z" transform="translate(-216.39 -194.5)"/><path class="cls-5" d="M617.63,410c-.24,3-1.06,5.11-3,6.73-.62,1.07-.74,2.52-1.79,3.62a1.17,1.17,0,0,1-.81-.21,3.85,3.85,0,0,1,.05-1.76c1.54-3.74,1.09-7.65,1.1-11.52,0-1.82-1.51-2.12-2.52-3-1.51-1.39-4.57-2.9-2.61-5.23a4,4,0,0,1,2.49-.84c.8.16,1.33,1.94,1.9,2.51a4,4,0,0,1,2.32,3.81C616.81,405.37,616.68,408.32,617.63,410Z" transform="translate(-216.39 -194.5)"/><path class="cls-5" d="M667.08,525.27l1.71.89-2.7,3.87-.79-.29c0-2.55,0-5.11,0-7.66,0-.29.62-.87.8-.81a5.89,5.89,0,0,1,2.26,1.1C669.12,524,667.82,524.69,667.08,525.27Z" transform="translate(-216.39 -194.5)"/><path class="cls-5" d="M656.5,519.78c-.14-2.65,0-3,2.32-3.52a1.78,1.78,0,0,1,1.55.67c1,1.84.91,1.88,3.42,2.37L660.7,521C659.68,517.81,657.81,522.17,656.5,519.78Z" transform="translate(-216.39 -194.5)"/><path class="cls-5" d="M511.13,705.89c.16-2.26.06-2.2,2.3-1.81,2.32,0,2.76,1.38,2.71,3.31,0,.39.59.77.78,1.2a5.34,5.34,0,0,1,.2,1.27c-.5-.09-1.26,0-1.45-.3a7.48,7.48,0,0,1-1.13-2.57C514,704.39,513.71,704.26,511.13,705.89Z" transform="translate(-216.39 -194.5)"/><path class="cls-5" d="M619.18,725.09c-.15,2.32-3,4.08-3.73,1.7a16.54,16.54,0,0,1,2.52-2.5C618.12,724.18,618.9,724.89,619.18,725.09Z" transform="translate(-216.39 -194.5)"/><path class="cls-5" d="M548.9,508.06c2.29,1.38,2.65,2.86,1.39,4.72-.18.27-.7.63-.86.55C547.94,512.33,549.06,509.84,548.9,508.06Z" transform="translate(-216.39 -194.5)"/><path class="cls-5" d="M660.79,533.94a14.39,14.39,0,0,1,2.36-2.05c.2-.12,1.35.85,1.29,1a22.36,22.36,0,0,1-1.54,2.68Z" transform="translate(-216.39 -194.5)"/><path class="cls-5" d="M613.9,424.66c.32.57,1,1.22.86,1.68a2.36,2.36,0,0,1-1.45,1.41c-.33.1-1.39-.8-1.32-1.07a7.21,7.21,0,0,1,1.17-2Z" transform="translate(-216.39 -194.5)"/><path class="cls-5" d="M662.71,523.53c.57,1,1.16,1.93,1.67,2.93.06.11-.33.65-.45.63-1.76,0-1.56-1.86-2-3.1Z" transform="translate(-216.39 -194.5)"/><path class="cls-5" d="M545.17,522.67c1.17-.95,1.77-2.4,3.37-2-.06.39,0,.94-.2,1.13C547.5,522.51,546.78,523.79,545.17,522.67Z" transform="translate(-216.39 -194.5)"/><path class="cls-5" d="M498.12,535.09c.85.42,1.7.84,2.54,1.27-.22.32-.4.88-.66.92C498.79,537.47,498,537,498.12,535.09Z" transform="translate(-216.39 -194.5)"/><path class="cls-5" d="M670.38,526.51v3.6l-.37.19A10.73,10.73,0,0,1,668.9,528C668.84,527.73,669.62,527.26,670.38,526.51Z" transform="translate(-216.39 -194.5)"/><path class="cls-5" d="M548.83,497.29c0-1.16-.54-2.59,1.45-3,.31,1.49.36,2.69-1.5,3Z" transform="translate(-216.39 -194.5)"/><path class="cls-5" d="M500.77,531.63l-2.27.79c0-.44-.08-1.15.14-1.29a6.83,6.83,0,0,1,1.85-.52Z" transform="translate(-216.39 -194.5)"/><path class="cls-5" d="M500.87,733c-1.18-1.63-1.37-1.66.08-2.75C502.13,731.41,501.93,731.56,500.87,733Z" transform="translate(-216.39 -194.5)"/><path class="cls-5" d="M547.62,469l1.58-.42c.36,1.52-.5,2.34-2.15,1.88l.63-1.52Z" transform="translate(-216.39 -194.5)"/><path class="cls-5" d="M607.76,557.78c.48.2,1.37.45,1.36.6a16.06,16.06,0,0,1-.62,2.48l-.69-.11v-3Z" transform="translate(-216.39 -194.5)"/><path d="M628,571.79c0-.81.29-1.84-.09-2.39-1-1.47-.14-2.16.91-2.67,1.38-.67,1.88-1.55,1.38-3-.11-.33-.17-1,0-1.05,2.48-1.38,1.21-2.95-.13-5,1.22,0,2.68-.21,2.76,0,.34,1,.74,2.59.23,3.16-1.35,1.52-.48,2.93-.2,4.26,1,3.77-.17,3.08-3.2,3.42-.84,1.42,2,2.4.26,3.69-.35.25-1.28-.28-2-.45Z" transform="translate(-216.39 -194.5)"/><path d="M637.8,562.19a13.39,13.39,0,0,1-2.23.92,1.54,1.54,0,0,1-1.27-.48c-.15-.16.08-.82.31-1.15,1.89-2.8,1.9-2.79,3.51-3.36Z" transform="translate(-216.39 -194.5)"/><path d="M644.52,569.82c-.17-1.38.72-3.15-1.42-3.82-.22-.07-.13-1.14-.18-1.62l3.28-1.48c-.33,2.34-.67,4.66-1,7Z" transform="translate(-216.39 -194.5)"/><path d="M640.27,566.33c1.18.8,3.75,3,1.58,3.88a2.63,2.63,0,0,1-2-1.42C638.39,567.23,638.39,567.23,640.27,566.33Z" transform="translate(-216.39 -194.5)"/><path d="M635.34,539.44c1,3-.83,5.28-3.71,5.63l-.43-.82C633,542.84,634.43,541.75,635.34,539.44Z" transform="translate(-216.39 -194.5)"/><path d="M637.81,516.94" transform="translate(-216.39 -194.5)"/><path d="M650.64,554.06c.44-1.52,3.23-3.35,3.78-1.34C653.31,554,652.41,554.52,650.64,554.06Z" transform="translate(-216.39 -194.5)"/><path d="M652.08,564.22a13.2,13.2,0,0,1-2-1.34c-.18-.17.08-.83.14-1.27.4.15,1,.19,1.14.46A14,14,0,0,1,652.08,564.22Z" transform="translate(-216.39 -194.5)"/><path d="M647.86,560c-.48-.5-1-1-1-1a3.73,3.73,0,0,1,1.08-1c.08,0,.77.54.75.78S648.28,559.37,647.86,560Z" transform="translate(-216.39 -194.5)"/><path d="M635,566.32a12.06,12.06,0,0,1,.51,1.75c0,.12-.53.33-.81.5l-.64-1.89Z" transform="translate(-216.39 -194.5)"/><path d="M632,569.11a10,10,0,0,1,1.67.73c.13.09,0,.66-.09,1l-2-.82Z" transform="translate(-216.39 -194.5)"/><path d="M540.56,509.83c.24-3.3.49-6.61.77-10.33,1.13-.07,3-.39,2.79,1.65-.33,1-1.59,2-1.4,2.78.5,2-1.07,3.2-1.18,4.88,0,.41-.45.8-.69,1.2Z" transform="translate(-216.39 -194.5)"/><path d="M533.12,511.66c-.86,3.13-4.69.64-6.85-.4,2.41-1.19,4.61.67,6.9.45Z" transform="translate(-216.39 -194.5)"/><path d="M533.17,511.71c.54-1.33,1.19-2.19,2.82-1.22.47.28,1.28,0,1.93-.07-.07,1-1.82,1.92-3,1.59-.58-.16-1.18-.24-1.78-.35Z" transform="translate(-216.39 -194.5)"/><path d="M522,509.84l-1.73-1.62,2.06-2.69.42,4.21Z" transform="translate(-216.39 -194.5)"/><path d="M518.3,508.75c1.8.3,1.91,1.39,0,3.62Z" transform="translate(-216.39 -194.5)"/><path d="M529.26,552.83c.6.4,1.68,1,1.47,1.86a1.61,1.61,0,0,1-2.33.43c-1-.85-8.24-7.53-4.15-7.34a10.41,10.41,0,0,0,1.79.49C527.61,548.23,528.59,552.16,529.26,552.83Z" transform="translate(-216.39 -194.5)"/></g></svg>